# xmcd
#
# Track frame offsets: 
#        150
#        17755
#        37367
#        52760
#        68660
#        87567
#        102825
#        118820
#        132270
#        148127
#        165095
#        182560
#        199812
#        221982
#        238377
#
# Disc length: 3323 seconds
#
# Revision: 3
# Processed by: cddbd v1.5.2PL0 Copyright (c) Steve Scherf et al.
# Submitted via: ExactAudioCopyFreeDBPlugin 1.0
#
DISCID=df0cf90f
DTITLE=Brooke Valentine - Chain Letter
DYEAR=2005
DGENRE=R&B
TTITLE0=Girl Fight Feat. Lil' Jon and Big Boi
TTITLE1=Taste Of Dis
TTITLE2=Long As You Come Home
TTITLE3=Blah-Blah-Blah Feat. Dirt McGirt
TTITLE4=Cover Girl
TTITLE5=Playa Feat. Jermaine Dupri
TTITLE6=Ghetto Supastarz
TTITLE7=Tell Me Why? (You Don't Love Me)
TTITLE8=Million Bucks Feat. Queene Deliz
TTITLE9=I Want You Dead
TTITLE10=Dying Of A Broken Heart
TTITLE11=Pass Us By
TTITLE12=Laugh Til I Cry
TTITLE13=American Girl
TTITLE14=Watcha Lookin At Feat. Kilo
EXTD=
EXTT0=
EXTT1=
EXTT2=
EXTT3=
EXTT4=
EXTT5=
EXTT6=
EXTT7=
EXTT8=
EXTT9=
EXTT10=
EXTT11=
EXTT12=
EXTT13=
EXTT14=
PLAYORDER=
